<svg xmlns="http://www.w3.org/2000/svg" xmlns:xlink="http://www.w3.org/1999/xlink" viewBox="0 0 600 600" role="img"><title>GDPR</title><circle cx="300" cy="300" r="300" fill="#039"/><g fill="#fc0" transform="translate(300,300) scale(0.5)"><path id="gs" d="M0,162.5 22.041947,230.338137 -35.664619,188.411863H35.664619L-22.041947,230.338137z"/><use xlink:href="#gs" y="-400"/><g id="gs5"><use xlink:href="#gs" transform="rotate(30) rotate(-30,0,200)"/><use xlink:href="#gs" transform="rotate(60) rotate(-60,0,200)"/><use xlink:href="#gs" transform="rotate(90) rotate(-90,0,200)"/><use xlink:href="#gs" transform="rotate(120) rotate(-120,0,200)"/><use xlink:href="#gs" transform="rotate(150) rotate(-150,0,200)"/></g><use xlink:href="#gs5" transform="scale(-1,1)"/></g><g transform="translate(300,300)"><path d="M-40,-30 a40,40 0 0,1 80,0 v18 h-22 v-18 a18,18 0 0,0 -36,0 v18 h-22 z" fill="#fc0"/><rect x="-52" y="-12" width="104" height="86" rx="12" fill="#fc0"/><circle cx="0" cy="22" r="12" fill="#039"/><rect x="-5" y="22" width="10" height="26" rx="5" fill="#039"/></g></svg>
